<svg version="1.1" xmlns="http://www.w3.org/2000/svg" xmlns:xlink="http://www.w3.org/1999/xlink" x="0px" y="0px" width="326.757px" height="59.295px" viewBox="0 0 326.757 59.295" enable-background="new 0 0 326.757 59.295" xml:space="preserve">
    <path fill="#BBC0B7" d="M326.757,37.052c0,2.372-1.918,4.29-4.286,4.29c-2.371,0-4.292-1.918-4.292-4.29
        c0-2.367,1.921-4.288,4.292-4.288C324.839,32.764,326.757,34.685,326.757,37.052"></path>
    <path fill="#BBC0B7" d="M72.709,10.756h-6.213l-9.759,24.41v6.292h5.892l1.61-4.427H74.92l1.473,4.427h8.518L72.709,10.756z
        M66.402,30.818l3.227-10.497l3.174,10.497H66.402z"></path>
    <path fill="#BBC0B7" d="M106.375,21.42c0-3.221-1.292-6.354-3.775-8.424c-2.627-2.21-6.171-2.24-9.442-2.24h-9.711v30.702h7.501
        V31.55l7.141,9.908h8.976L98.73,31.041C103.611,30.212,106.375,26.209,106.375,21.42 M93.713,26.209h-2.766v-8.517h2.856
        c2.763,0,5.019,1.104,5.019,4.188C98.823,24.961,96.521,26.209,93.713,26.209"></path>
    <polygon fill="#BBC0B7" points="27.163,29.787 22.652,10.756 16.623,10.756 12.061,29.695 7.963,10.756 0,10.756 7.918,41.458 
        14.965,41.458 19.615,22.947 24.264,41.458 31.17,41.458 38.144,15.205 38.144,41.458 55.175,41.458 55.175,34.586 45.65,34.586 
        45.65,29.336 55.178,29.336 55.178,22.435 45.65,22.435 45.65,17.693 55.175,17.693 55.175,10.756 31.352,10.756 "></polygon>
    <polygon fill="#BBC0B7" points="107.278,41.458 124.308,41.458 124.308,34.586 114.784,34.586 114.784,29.336 124.308,29.336 
        124.308,22.435 114.784,22.435 114.784,17.692 124.308,17.692 124.308,10.756 107.278,10.756 "></polygon>
    <path fill="#BBC0B7" d="M196.299,59.293c0.057-0.006,0.149-0.026,0.217-0.048c0.166-0.057,8.543-2.884,8.543-11.001v-5.655
        l-6.991-9.956v18.298c0,5.477-1.948,7.851-1.948,7.851c-0.045,0.056-0.078,0.091-0.104,0.139
        C195.927,59.085,196.022,59.319,196.299,59.293"></path>
    <polygon fill="#BBC0B7" points="213.546,33.819 229.66,11.37 229.66,0 213.546,21.994 197.434,0 197.434,11.37 "></polygon>
    <polygon fill="#BBC0B7" points="213.546,50.175 231.486,24.939 231.486,41.458 238.477,41.458 238.477,3.052 213.546,38.112 
        188.618,3.052 188.618,41.458 195.61,41.458 195.61,24.939 "></polygon>
    <path fill="#BBC0B7" d="M230.795,59.293c-0.056-0.006-0.15-0.026-0.213-0.048c-0.171-0.057-8.544-2.884-8.544-11.001v-5.655
        l6.987-9.956v18.298c0,5.477,1.951,7.851,1.951,7.851c0.043,0.056,0.076,0.091,0.103,0.139
        C231.169,59.085,231.077,59.319,230.795,59.293"></path>
    <path fill="#BBC0B7" d="M307.195,10.755v11.473h-10.027V10.755H269.25v6.762c-2.827-4.465-7.798-7.438-13.475-7.438
        c-8.813,0.003-15.951,7.139-15.957,15.95c0.006,8.818,7.144,15.954,15.957,15.96c8.814-0.006,15.951-7.142,15.955-15.96
        c0-3.089-0.896-5.964-2.418-8.405h6.012v23.834h7.827V17.624h6.185v23.834h7.832V29.131h10.027v12.327h7.825V10.755H307.195z
        M255.775,34.833c-4.861-0.009-8.796-3.943-8.804-8.804c0.008-4.856,3.942-8.792,8.804-8.798c4.859,0.006,8.792,3.941,8.8,8.798
        C264.567,30.89,260.634,34.824,255.775,34.833"></path>
    <path fill="#BBC0B7" d="M169.83,10.756l-11.035,27.528V10.756h-10.13L142.59,28.85l-6.101-18.094h-10.082v30.702h7.156V22.222
        l6.447,19.236h5.205l6.319-19.304v19.304h14.432l1.611-4.5h10.68l1.472,4.5h8.518l-12.194-30.702H169.83z M169.732,30.747
        l3.229-10.499l3.18,10.499H169.732z"></path>
</svg>